<?xml version="1.0" standalone="no"?>
<!DOCTYPE svg PUBLIC "-//W3C//DTD SVG 20010904//EN"
 "http://www.w3.org/TR/2001/REC-SVG-20010904/DTD/svg10.dtd">
<svg version="1.0" xmlns="http://www.w3.org/2000/svg"
 width="300.000000pt" height="300.000000pt" viewBox="0 0 300.000000 300.000000"
 preserveAspectRatio="xMidYMid meet">
<metadata>
Created by potrace 1.11, written by Peter Selinger 2001-2013
</metadata>
<g transform="translate(0.000000,300.000000) scale(0.100000,-0.100000)"
fill="#000000" stroke="none">
<path d="M1275 2989 c-428 -66 -803 -309 -1041 -674 -74 -114 -120 -210 -164
-344 -55 -165 -70 -264 -70 -471 0 -207 15 -306 70 -471 172 -517 591 -889
1131 -1006 121 -26 480 -26 594 0 319 73 543 195 766 417 131 131 221 258 298
421 99 211 132 359 137 614 4 276 -34 451 -150 690 -73 150 -160 269 -291 400
-207 207 -460 345 -755 410 -88 20 -430 29 -525 14z m484 -100 c140 -27 252
-66 376 -129 153 -78 232 -136 361 -265 206 -205 328 -433 391 -726 25 -119
25 -420 0 -539 -42 -193 -116 -371 -222 -530 -71 -106 -270 -302 -379 -374
-671 -441 -1550 -256 -1982 415 -54 84 -76 128 -119 234 -249 618 -28 1329
530 1702 165 111 377 193 574 222 103 16 367 10 470 -10z"/>
<path d="M1308 2780 c-454 -72 -839 -377 -1008 -797 -220 -548 -45 -1170 428
-1521 145 -107 351 -198 527 -233 109 -22 409 -19 510 5 260 61 461 172 646
356 389 389 489 973 250 1465 -32 66 -81 152 -108 190 -188 262 -459 444 -773
516 -97 23 -377 34 -472 19z m588 -544 c59 -27 116 -90 132 -145 52 -171 -62
-331 -237 -332 -176 -1 -290 155 -241 332 25 90 137 169 240 169 37 0 72 -8
106 -24z m-320 -467 c51 -24 82 -69 90 -131 8 -56 -5 -85 -115 -272 -45 -76
-79 -142 -74 -146 4 -4 78 -56 163 -115 187 -131 198 -139 221 -190 41 -90 15
-186 -61 -227 -33 -17 -60 -18 -427 -16 -378 3 -393 4 -419 24 -51 38 -69 71
-69 129 0 58 18 91 69 129 22 17 47 22 134 26 l107 5 -31 17 c-74 41 -112 115
-101 197 5 40 258 483 306 535 53 58 133 72 207 35z m269 -273 c46 -20 75 -69
75 -127 0 -131 -172 -176 -246 -64 -24 37 -21 107 7 146 38 54 101 71 164 45z"/>
</g>
</svg>
